name C:\Users\r0593348\3dpredictsim\Results\Batchsim_tmt_linear\Pog_s1_tmt_aCst_d05_k800_ig24.mot
datacolumns 128
datarows 4
range 0.00000000 0.03230658
endheader
time	pelvis_tilt	pelvis_list	pelvis_rotation	pelvis_tx	pelvis_ty	pelvis_tz	hip_flexion_l	hip_adduction_l	hip_rotation_l	hip_flexion_r	hip_adduction_r	hip_rotation_r	knee_angle_l	knee_angle_r	ankle_angle_l	ankle_angle_r	subtalar_angle_l	subtalar_angle_r	tmt_angle_l	tmt_angle_r	mtp_angle_l	mtp_angle_r	lumbar_extension	lumbar_bending	lumbar_rotation	arm_flex_l	arm_add_l	arm_rot_l	arm_flex_r	arm_add_r	arm_rot_r	elbow_flex_l	elbow_flex_r	pro_sup_l	pro_sup_r	glut_med1_l/activation	glut_med2_l/activation	glut_med3_l/activation	glut_min1_l/activation	glut_min2_l/activation	glut_min3_l/activation	semimem_l/activation	semiten_l/activation	bifemlh_l/activation	bifemsh_l/activation	sar_l/activation	add_long_l/activation	add_brev_l/activation	add_mag1_l/activation	add_mag2_l/activation	add_mag3_l/activation	tfl_l/activation	pect_l/activation	grac_l/activation	glut_max1_l/activation	glut_max2_l/activation	glut_max3_l/activation	iliacus_l/activation	psoas_l/activation	quad_fem_l/activation	gem_l/activation	peri_l/activation	rect_fem_l/activation	vas_med_l/activation	vas_int_l/activation	vas_lat_l/activation	med_gas_l/activation	lat_gas_l/activation	soleus_l/activation	tib_post_l/activation	flex_dig_l/activation	flex_hal_l/activation	tib_ant_l/activation	per_brev_l/activation	per_long_l/activation	per_tert_l/activation	ext_dig_l/activation	ext_hal_l/activation	ercspn_l/activation	intobl_l/activation	extobl_l/activation	glut_med1_r/activation	glut_med2_r/activation	glut_med3_r/activation	glut_min1_r/activation	glut_min2_r/activation	glut_min3_r/activation	semimem_r/activation	semiten_r/activation	bifemlh_r/activation	bifemsh_r/activation	sar_r/activation	add_long_r/activation	add_brev_r/activation	add_mag1_r/activation	add_mag2_r/activation	add_mag3_r/activation	tfl_r/activation	pect_r/activation	grac_r/activation	glut_max1_r/activation	glut_max2_r/activation	glut_max3_r/activation	iliacus_r/activation	psoas_r/activation	quad_fem_r/activation	gem_r/activation	peri_r/activation	rect_fem_r/activation	vas_med_r/activation	vas_int_r/activation	vas_lat_r/activation	med_gas_r/activation	lat_gas_r/activation	soleus_r/activation	tib_post_r/activation	flex_dig_r/activation	flex_hal_r/activation	tib_ant_r/activation	per_brev_r/activation	per_long_r/activation	per_tert_r/activation	ext_dig_r/activation	ext_hal_r/activation	ercspn_r/activation	intobl_r/activation	extobl_r/activation	
          0.00000000	         -2.92798937	         -2.21179856	          5.60580586	          0.00000000	          0.85791267	         -0.00212482	        -18.00677983	         -1.86226104	          6.99305368	         31.49784629	          3.19119996	         -1.99063055	         -7.63234471	        -15.19104348	          0.51492854	          6.58747073	         11.01373538	         -2.73712868	          1.25254401	          0.04770821	         21.53927384	         -0.10802390	         -1.92356199	          0.63618472	         -1.92400997	          8.22342795	        -13.46234614	         18.55556744	         -8.54117815	        -13.52624383	          9.16694407	         34.44272282	         13.10974945	         86.51662706	         86.51662706	          0.28927121	          0.10229116	          0.06955905	          0.31149206	          0.21606527	          0.10777264	          0.05000124	          0.05000012	          0.05000007	          0.07252856	          0.10727572	          0.09737404	          0.08532709	          0.05000118	          0.05000167	          0.05000057	          0.31205311	          0.09451095	          0.05000060	          0.05000081	          0.05000051	          0.05000058	          0.33554259	          0.57362634	          0.05000008	          0.05000019	          0.05000017	          0.18728313	          0.08933442	          0.07398165	          0.06499959	          0.29753001	          0.40015183	          0.28331224	          0.25824313	          0.26898776	          0.34407425	          0.05000000	          0.05897411	          0.16202104	          0.05000007	          0.05000001	          0.05000006	          0.05000001	          0.05000005	          0.05000005	          0.05897402	          0.05897406	          0.05000007	          0.05897408	          0.05897408	          0.05897397	          0.05897402	          0.05002320	          0.20219064	          0.05000017	          0.05000016	          0.11413817	          0.26578120	          0.11041439	          0.11784502	          0.10789748	          0.05000006	          0.06883429	          0.07635519	          0.05000028	          0.05000027	          0.14996062	          0.05767834	          0.05000008	          0.26864691	          0.24981900	          0.13838717	          0.05678702	          0.16240055	          0.16050392	          0.14052127	          0.05132712	          0.05203768	          0.05681851	          0.05000000	          0.05000016	          0.05000014	          0.58185501	          0.36177501	          0.20068245	          0.37712226	          0.56825758	          0.30301538	          0.06341796	          0.09791004	          0.10120365	
          0.01076886	         -2.92089518	         -2.30578505	          5.88071968	          0.01624240	          0.85683320	         -0.00191960	        -17.78761759	         -2.15761764	          6.76550603	         30.85339762	          3.54797734	         -1.74252283	         -9.71934459	        -15.39751601	         -0.33557261	          5.95597921	         11.94880411	         -3.20293187	          1.18880418	          0.03429418	         22.56939316	         -0.06879735	         -1.72537091	          0.86222296	         -1.99607373	          8.02542349	        -13.47633453	         18.70670208	         -9.58897434	        -13.52142778	          9.01381260	         35.54111870	         13.03465931	         86.51662706	         86.51662706	          0.24525298	          0.08672558	          0.05897431	          0.26409251	          0.18318675	          0.09137296	          0.05000242	          0.05000039	          0.05000599	          0.06149194	          0.09095171	          0.18997054	          0.15365452	          0.06955967	          0.05897541	          0.05897471	          0.26456821	          0.08362312	          0.05000482	          0.05000623	          0.05001831	          0.05897414	          0.28448327	          0.52403522	          0.05897412	          0.05897463	          0.05897411	          0.15878438	          0.11920519	          0.15878324	          0.15570721	          0.25225502	          0.33926094	          0.24020076	          0.21894646	          0.22805619	          0.29171676	          0.05000000	          0.05000010	          0.14294493	          0.05000003	          0.05000000	          0.05000005	          0.05889798	          0.06541620	          0.05011828	          0.05000000	          0.05000004	          0.11256784	          0.05000004	          0.05000004	          0.05000005	          0.05000003	          0.05000005	          0.17142342	          0.05000003	          0.05000055	          0.09676991	          0.22533764	          0.33904719	          0.21255580	          0.12114784	          0.05000054	          0.05836225	          0.07693300	          0.07610313	          0.09675413	          0.12714126	          0.05000004	          0.06955422	          0.43348086	          0.21180419	          0.11732888	          0.06955820	          0.18430159	          0.19656093	          0.16369714	          0.05000021	          0.05898108	          0.05000001	          0.06072620	          0.06955900	          0.06955871	          0.49331447	          0.38930070	          0.23067523	          0.31973585	          0.52702002	          0.25690571	          0.05376768	          0.08301112	          0.08580355	
          0.02153772	         -2.90988932	         -2.40003439	          6.12709522	          0.03273009	          0.85574434	         -0.00172572	        -17.48230232	         -2.44204498	          6.52481485	         30.03594911	          3.83748356	         -1.46784837	        -11.94919804	        -15.83170413	         -1.34773599	          5.51052509	         12.81511658	         -3.68709437	          1.10635227	         -0.01828903	         23.43353873	         -0.18977313	         -1.50892641	          1.09408401	         -2.05743296	          7.74014964	        -13.49071656	         18.77323788	        -10.63755283	        -13.52137011	          8.91119351	         36.62282125	         12.98997914	         86.51662706	         86.51662706	          0.34898584	          0.07352860	          0.05000024	          0.37365753	          0.15531137	          0.07746880	          0.05184405	          0.05000010	          0.05000007	          0.05213481	          0.07711650	          0.16106286	          0.13027305	          0.05897485	          0.05000127	          0.05000062	          0.27346664	          0.07091362	          0.05000056	          0.05000083	          0.05000040	          0.05000033	          0.24119369	          0.49139519	          0.05000011	          0.05000063	          0.05000014	          0.13462225	          0.10106582	          0.13462130	          0.13201335	          0.21386951	          0.28763578	          0.20364954	          0.18562951	          0.19335305	          0.24732641	          0.05000001	          0.10359818	          0.18387443	          0.05000006	          0.05000008	          0.05000009	          0.06307321	          0.05546185	          0.05000002	          0.25910545	          0.26170209	          0.32712815	          0.36827973	          0.23064045	          0.19826690	          0.07631767	          0.06491159	          0.14802477	          0.08204417	          0.05897420	          0.08204452	          0.19104816	          0.28745460	          0.18021136	          0.11179475	          0.05000017	          0.05019967	          0.06522719	          0.16780346	          0.13877231	          0.10779430	          0.05719586	          0.05897024	          0.36751833	          0.17957413	          0.24918980	          0.05897357	          0.15625654	          0.16665039	          0.13878746	          0.05000035	          0.05000602	          0.05560112	          0.05148554	          0.05897432	          0.05897411	          0.58165135	          0.41924261	          0.21200259	          0.46634876	          0.60968585	          0.31482516	          0.06963043	          0.10047755	          0.07274687	
          0.03230658	         -2.89688468	         -2.48368809	          6.33805077	          0.04925750	          0.85467685	         -0.00150768	        -17.07172545	         -2.70754027	          6.28876715	         29.14008211	          4.10907356	         -1.19567271	        -14.32724663	        -16.20512636	         -2.48929026	          5.16857619	         13.62505757	         -4.19142769	          0.98978725	         -0.02299364	         24.02794268	         -0.18911133	         -1.29546313	          1.31950510	         -2.10862928	          7.40306731	        -13.51202017	         18.77942755	        -11.63629707	        -13.52050013	          8.86858247	         37.66433186	         12.94327798	         86.51662706	         86.51662706	          0.29588090	          0.06233980	          0.05000002	          0.31679833	          0.13167775	          0.06568044	          0.07054127	          0.05000007	          0.05000007	          0.05000003	          0.06538181	          0.18760653	          0.16768090	          0.05000107	          0.05000522	          0.06332386	          0.23185360	          0.06012475	          0.05000023	          0.05000109	          0.05000076	          0.05000058	          0.20449139	          0.43904895	          0.05000006	          0.05000023	          0.05000005	          0.11413686	          0.11413650	          0.11413652	          0.11413648	          0.18132510	          0.24386640	          0.17266029	          0.15738238	          0.16393067	          0.20969092	          0.10897279	          0.15739415	          0.15770137	          0.05000081	          0.17488051	          0.05000066	          0.09693751	          0.05000000	          0.05000001	          0.35751601	          0.37589295	          0.41996077	          0.31223903	          0.19554522	          0.26724998	          0.07487280	          0.11443023	          0.12549996	          0.06955962	          0.05000031	          0.06955988	          0.16197652	          0.24371323	          0.21797076	          0.16386885	          0.05000012	          0.05000748	          0.12295564	          0.24948896	          0.19257694	          0.15836746	          0.05000006	          0.05000005	          0.31159329	          0.15224847	          0.23478364	          0.05000001	          0.17685429	          0.22653268	          0.17137714	          0.05000000	          0.05000001	          0.05000000	          0.05000000	          0.05000027	          0.05000009	          0.64688459	          0.35544675	          0.17974231	          0.68382279	          0.62967191	          0.40298364	          0.08700752	          0.08518793	          0.06167702	
